<?xml version="1.0" encoding="UTF-8"?><svg id="Capa_1" xmlns="http://www.w3.org/2000/svg" viewBox="0 0 173.21 24.55"><path d="M172.07,19.65l.05.06s0,0,0,0c0,0-.05-.06-.05-.06,0,0,0,0,0,.01-1.43-1.44-2.8-.93-3.88.39-.95,1.16-.79,2.52.32,3.56,1.19,1.12,2.58,1.17,3.73,0,1.26-1.29,1.41-2.7-.17-3.95Z"/><path d="M117.88,2.35c0-.67,0-1.33-.77-1.68-1.95-.91-5.26.12-6.33,1.99-1.93,3.39-3.85,6.8-5.78,10.19-.28.49-.38,1.27-1.05,1.31-.85.06-.91-.85-1.21-1.38-1.72-3.01-3.6-5.95-4.99-9.1-1.2-2.73-3.04-3.41-5.75-3.17-1.49.13-2.1.61-2.08,2.14.05,6.49.08,12.99,0,19.48-.02,1.8.82,2.03,2.29,2.06,1.6.03,2.49-.31,2.45-2.18-.09-3.98-.04-7.97,0-11.95,0-.5-.31-1.14.36-1.59,2.58,4.72,5.15,9.35,7.66,14.02.74,1.37,1.36,1.43,2.11.08.21-.39.41-.78.63-1.17,2.36-4.29,4.73-8.58,7.09-12.87.15.03.29.07.44.1,0,.77,0,1.54,0,2.31,0,3.84.06,7.67-.02,11.51-.03,1.67.96,1.81,2.14,1.71,1.18-.1,2.85.61,2.84-1.66-.03-6.71,0-13.43-.01-20.14Z"/><path d="M164.63,2.97c.03-1.84-.63-2.45-2.44-2.46-1.8,0-2.49.53-2.44,2.41.11,4.23.04,8.47.04,12.7-1.09.07-1.37-.65-1.81-1.08-2.39-2.4-4.74-4.85-7.11-7.27-1.86-1.9-3.74-3.77-5.58-5.68-1.53-1.58-3.48-1.26-5.18-.81-1.44.38-.73,2.05-.74,3.12-.06,6.12.02,12.24-.05,18.36-.02,1.68.8,2,2.18,1.91,1.28-.08,2.77.32,2.7-1.85-.09-2.8-.03-5.6-.03-8.4,0-1.79,0-3.59,0-5.38.22-.1.44-.19.66-.29,1.23,1.32,2.44,2.67,3.7,3.96,3.43,3.55,6.94,7.03,10.31,10.64,1.44,1.54,3.18,1.64,4.86,1.12,1.59-.49.86-2.15.87-3.3.06-5.9-.02-11.8.06-17.69Z"/><path d="M26.82,12.95c0-1.27-.61-1.88-1.92-1.83-1.47.05-2.95.01-4.43.01h0c-1.4,0-2.81.02-4.21-.02-1.2-.03-2.01.27-2.05,1.67-.04,1.52.85,1.88,2.13,1.86,1.33-.02,2.66,0,3.98,0,.93,0,2,.03,1.82,1.29-.19,1.27,1.06,3.07-1.15,3.72-2.72.81-5.51,1.14-8.32.77-4.49-.58-7.5-4-7.38-8.22.12-4.41,3.06-7.34,7.75-7.77,3.31-.31,6.48.17,9.47,1.62,1.46.71,2.16.1,2.76-1.15.55-1.13.82-2.13-.65-2.71C18.45-.23,12.16-1.12,6.01,2.01,1.55,4.28-.18,8.36.01,13.24c.18,4.54,2.32,7.87,6.57,9.63,6.2,2.56,12.4,1.99,18.55-.28,1.04-.38,1.7-1.13,1.7-2.34-.01-2.43,0-4.87,0-7.3Z"/><path d="M128.43.54c-1.64-.06-2.68.24-2.6,2.26.12,3.16.03,6.33.03,9.49h0c0,3.24.09,6.48-.03,9.71-.08,2.1,1.08,2.2,2.65,2.17,1.49-.03,2.7.06,2.66-2.12-.12-6.47-.11-12.95,0-19.42.04-2.21-1.25-2.03-2.71-2.09Z"/><path d="M79.37,13.61c3.57-1.4,4.91-3.45,4.59-6.62-.34-3.41-2.22-5.3-5.96-6.07-2.92-.6-5.88-.22-8.32-.35-2.77,0-5.06.07-7.34-.02-1.58-.06-2.29.45-2.27,2.12.05,6.56.07,13.11,0,19.67-.02,1.97,1.19,1.84,2.49,1.83,1.32-.01,2.78.28,2.71-1.85-.07-1.99.03-3.98-.04-5.97-.04-1.17.26-1.58,1.56-1.72,3.38-.36,6.07.29,7.63,3.68.51,1.12,1.59,1.97,2.12,3.08,1.29,2.66,3.45,3.06,6.06,2.8,1.45-.14,1.43-.69.74-1.65-1.54-2.16-3.01-4.37-4.65-6.44-1.06-1.33-.85-1.88.7-2.48ZM75.78,10.8c-2.99.58-6.02.24-9.03.3-.85.02-1.43-.48-1.46-1.34-.06-1.32-.04-2.65.01-3.97.04-1.05.77-1.31,1.68-1.31,1.33,0,2.65,0,3.98,0,0-.03,0-.05,0-.08,1.61.09,3.25.05,4.84.31,1.64.27,2.94,1.19,2.93,3.06-.01,1.85-1.26,2.71-2.94,3.03Z"/><path d="M45.77,2.68c-.64-1.25-1.36-2.19-2.98-2.16-1.61.03-2.33.96-2.94,2.23-1.9,3.98-3.84,7.94-5.76,11.91-1.24,2.58-2.47,5.17-3.68,7.77-.25.54-.85,1.18.13,1.65,1.37.65,3.86-.1,4.51-1.53.62-1.35,1.53-1.75,2.96-1.7,3.16.09,6.33.06,9.5,0,1.16-.02,2.04.32,2.44,1.45.62,1.72,1.91,2.08,3.29,1.85q3.55-.02,2-3.04c-3.16-6.14-6.33-12.28-9.48-18.43ZM45.82,17.45c-2.29,0-4.57-.03-6.86-.01-.9,0-1.31-.37-.92-1.21,1.37-2.98,2.79-5.93,4.46-9.45,1.62,3.53,3.02,6.49,4.34,9.48.38.87-.22,1.18-1.02,1.18Z"/></svg>